<svg width="160" height="48" viewBox="0 0 160 48" fill="none" xmlns="http://www.w3.org/2000/svg">
<path d="M2.27304 35V8.84727H12.5911C14.5662 8.84727 16.2518 9.20057 17.648 9.90717C19.0527 10.6053 20.1211 11.5971 20.8532 12.8826C21.5939 14.1595 21.9642 15.6621 21.9642 17.3903C21.9642 19.127 21.5896 20.6211 20.8405 21.8726C20.0913 23.1155 19.0058 24.069 17.5841 24.733C16.1709 25.397 14.4598 25.7291 12.4506 25.7291H5.54213V21.2851H11.5567C12.6124 21.2851 13.4893 21.1404 14.1873 20.851C14.8854 20.5615 15.4047 20.1273 15.7453 19.5484C16.0943 18.9695 16.2688 18.2502 16.2688 17.3903C16.2688 16.522 16.0943 15.7898 15.7453 15.1939C15.4047 14.598 14.8812 14.1468 14.1746 13.8403C13.4765 13.5253 12.5954 13.3678 11.5312 13.3678H7.8024V35H2.27304ZM16.3965 23.0985L22.8964 35H16.7924L10.433 23.0985H16.3965ZM25.7696 35V15.3855H31.2096V35H25.7696ZM28.5024 12.857C27.6936 12.857 26.9998 12.5888 26.4209 12.0525C25.8505 11.5077 25.5653 10.8564 25.5653 10.0987C25.5653 9.34955 25.8505 8.7068 26.4209 8.17047C26.9998 7.62562 27.6936 7.3532 28.5024 7.3532C29.3111 7.3532 30.0007 7.62562 30.5711 8.17047C31.15 8.7068 31.4395 9.34955 31.4395 10.0987C31.4395 10.8564 31.15 11.5077 30.5711 12.0525C30.0007 12.5888 29.3111 12.857 28.5024 12.857ZM35.4652 35V31.7564L45.0681 19.8677V19.7272H35.7972V15.3855H51.6191V18.9227L42.6035 30.5178V30.6582H51.9511V35H35.4652ZM61.0401 29.3557L61.0528 22.8303H61.8446L68.1273 15.3855H74.3718L65.9309 25.2438H64.6412L61.0401 29.3557ZM56.1109 35V8.84727H61.5509V35H56.1109ZM68.37 35L62.598 26.4569L66.2246 22.6132L74.7421 35H68.37ZM77.0407 35V15.3855H82.4807V35H77.0407ZM79.7735 12.857C78.9647 12.857 78.2709 12.5888 77.692 12.0525C77.1216 11.5077 76.8364 10.8564 76.8364 10.0987C76.8364 9.34955 77.1216 8.7068 77.692 8.17047C78.2709 7.62562 78.9647 7.3532 79.7735 7.3532C80.5822 7.3532 81.2718 7.62562 81.8422 8.17047C82.4211 8.7068 82.7106 9.34955 82.7106 10.0987C82.7106 10.8564 82.4211 11.5077 81.8422 12.0525C81.2718 12.5888 80.5822 12.857 79.7735 12.857ZM97.3863 15.3855V19.4718H85.2805V15.3855H97.3863ZM88.0516 35V13.968C88.0516 12.5463 88.3282 11.3672 88.8816 10.4307C89.4435 9.49428 90.2097 8.79194 91.1802 8.32371C92.1507 7.85548 93.2532 7.62136 94.4876 7.62136C95.3219 7.62136 96.0838 7.68521 96.7734 7.81291C97.4715 7.94061 97.9908 8.05554 98.3313 8.1577L97.3608 12.2441C97.148 12.176 96.8841 12.1121 96.5691 12.0525C96.2626 11.9929 95.9476 11.9631 95.6241 11.9631C94.8239 11.9631 94.2662 12.1504 93.9512 12.525C93.6363 12.8911 93.4788 13.4061 93.4788 14.0702V35H88.0516ZM100.71 35V15.3855H106.15V35H100.71ZM103.442 12.857C102.634 12.857 101.94 12.5888 101.361 12.0525C100.791 11.5077 100.505 10.8564 100.505 10.0987C100.505 9.34955 100.791 8.7068 101.361 8.17047C101.94 7.62562 102.634 7.3532 103.442 7.3532C104.251 7.3532 104.941 7.62562 105.511 8.17047C106.09 8.7068 106.38 9.34955 106.38 10.0987C106.38 10.8564 106.09 11.5077 105.511 12.0525C104.941 12.5888 104.251 12.857 103.442 12.857ZM110.507 35V15.3855H115.781V18.8078H115.986C116.343 17.5904 116.943 16.671 117.786 16.0495C118.629 15.4195 119.6 15.1045 120.698 15.1045C120.97 15.1045 121.264 15.1215 121.579 15.1556C121.894 15.1896 122.171 15.2365 122.409 15.2961V20.1231C122.154 20.0465 121.8 19.9784 121.349 19.9188C120.898 19.8592 120.485 19.8294 120.11 19.8294C119.31 19.8294 118.595 20.0039 117.965 20.3529C117.344 20.6935 116.85 21.1702 116.484 21.7832C116.126 22.3961 115.947 23.1027 115.947 23.903V35H110.507ZM125.222 35V15.3855H130.495V18.8078H130.7C131.057 17.5904 131.658 16.671 132.5 16.0495C133.343 15.4195 134.314 15.1045 135.412 15.1045C135.684 15.1045 135.978 15.1215 136.293 15.1556C136.608 15.1896 136.885 15.2365 137.123 15.2961V20.1231C136.868 20.0465 136.514 19.9784 136.063 19.9188C135.612 19.8592 135.199 19.8294 134.824 19.8294C134.024 19.8294 133.309 20.0039 132.679 20.3529C132.058 20.6935 131.564 21.1702 131.198 21.7832C130.84 22.3961 130.661 23.1027 130.661 23.903V35H125.222Z" fill="#DEDEDE"/>
<path d="M142.111 35.2697C141.426 35.2697 140.839 35.0277 140.348 34.5436C139.863 34.0526 139.621 33.4648 139.621 32.7802C139.621 32.1025 139.863 31.5216 140.348 31.0376C140.839 30.5535 141.426 30.3115 142.111 30.3115C142.775 30.3115 143.356 30.5535 143.854 31.0376C144.351 31.5216 144.6 32.1025 144.6 32.7802C144.6 33.2366 144.483 33.655 144.248 34.0353C144.02 34.4087 143.719 34.7096 143.345 34.9378C142.972 35.1591 142.56 35.2697 142.111 35.2697Z" fill="#D46868"/>
</svg>
